<svg xmlns="http://www.w3.org/2000/svg" width="2018.84765625" height="1252.34130859375" viewBox="-936.2081909179688 -318.73797607421875 2018.84765625 1252.34130859375"><title>Neo4j Graph Visualization</title><desc>Created using Neo4j (http://www.neo4j.com/)</desc><g class="layer relationships"><g class="relationship" transform="translate(-352.820848857575 493.8890694706654) rotate(350.21805918900384)"><path class="outline" fill="#A5ABB6" stroke="none" d="M 25 0.5 L 118.10079613753567 0.5 L 118.10079613753567 -0.5 L 25 -0.5 Z M 176.10860863753567 0.5 L 269.20940477507133 0.5 L 269.20940477507133 3.5 L 276.20940477507133 0 L 269.20940477507133 -3.5 L 269.20940477507133 -0.5 L 176.10860863753567 -0.5 Z"/><text text-anchor="middle" pointer-events="none" font-size="8px" fill="#000000" x="147.10470238753567" y="3" font-family="sans-serif">SITUADO_EM</text></g><g class="relationship" transform="translate(-352.820848857575 493.8890694706654) rotate(507.556947017198)"><path class="outline" fill="#A5ABB6" stroke="none" d="M 25 0.5 L 69.62106477037786 0.5 L 69.62106477037786 -0.5 L 25 -0.5 Z M 157.41012727037787 0.5 L 202.0311920407557 0.5 L 202.0311920407557 3.5 L 209.0311920407557 0 L 202.0311920407557 -3.5 L 202.0311920407557 -0.5 L 157.41012727037787 -0.5 Z"/><text text-anchor="middle" pointer-events="none" font-size="8px" fill="#000000" x="113.51559602037786" y="3" transform="rotate(180 113.51559602037786 0)" font-family="sans-serif">RECONHECIDO_POR</text></g><g class="relationship" transform="translate(-192.59719873044767 316.76203426256285) rotate(380.2885830724049)"><path class="outline" fill="#A5ABB6" stroke="none" d="M 40 0.5 L 153.5556454423937 0.5 L 153.5556454423937 -0.5 L 40 -0.5 Z M 216.9033016923937 0.5 L 330.4589471347874 0.5 L 330.4589471347874 3.5 L 337.4589471347874 0 L 330.4589471347874 -3.5 L 330.4589471347874 -0.5 L 216.9033016923937 -0.5 Z"/><text text-anchor="middle" pointer-events="none" font-size="8px" fill="#000000" x="185.2294735673937" y="3" font-family="sans-serif">ADJACENTE_A</text></g><g class="relationship" transform="translate(-192.59719873044767 316.76203426256285) rotate(335.3730751773635)"><path class="outline" fill="#A5ABB6" stroke="none" d="M 40 0.5 L 168.0974539572448 0.5 L 168.0974539572448 -0.5 L 40 -0.5 Z M 231.4451102072448 0.5 L 359.5425641644896 0.5 L 359.5425641644896 3.5 L 366.5425641644896 0 L 359.5425641644896 -3.5 L 359.5425641644896 -0.5 L 231.4451102072448 -0.5 Z"/><text text-anchor="middle" pointer-events="none" font-size="8px" fill="#000000" x="199.7712820822448" y="3" font-family="sans-serif">ADJACENTE_A</text></g><g class="relationship" transform="translate(-192.59719873044767 316.76203426256285) rotate(535.1763352513335)"><path class="outline" fill="#A5ABB6" stroke="none" d="M 40 0.5 L 134.72470112837652 0.5 L 134.72470112837652 -0.5 L 40 -0.5 Z M 222.51376362837652 0.5 L 317.23846475675305 0.5 L 317.23846475675305 3.5 L 324.23846475675305 0 L 317.23846475675305 -3.5 L 317.23846475675305 -0.5 L 222.51376362837652 -0.5 Z"/><text text-anchor="middle" pointer-events="none" font-size="8px" fill="#000000" x="178.61923237837652" y="3" transform="rotate(180 178.61923237837652 0)" font-family="sans-serif">RECONHECIDO_POR</text></g><g class="relationship" transform="translate(-579.4366331490453 171.91190546788357) rotate(380.52816619730584)"><path class="outline" fill="#A5ABB6" stroke="none" d="M 40 0.5 L 171.3608589333339 0.5 L 171.3608589333339 -0.5 L 40 -0.5 Z M 234.7085151833339 0.5 L 366.0693741166678 0.5 L 366.0693741166678 3.5 L 373.0693741166678 0 L 366.0693741166678 -3.5 L 366.0693741166678 -0.5 L 234.7085151833339 -0.5 Z"/><text text-anchor="middle" pointer-events="none" font-size="8px" fill="#000000" x="203.0346870583339" y="3" font-family="sans-serif">ADJACENTE_A</text></g><g class="relationship" transform="translate(-579.4366331490453 171.91190546788357) rotate(507.2456447219522)"><path class="outline" fill="#A5ABB6" stroke="none" d="M 40 0.5 L 138.55810963682484 0.5 L 138.55810963682484 -0.5 L 40 -0.5 Z M 226.34717213682484 0.5 L 324.9052817736497 0.5 L 324.9052817736497 3.5 L 331.9052817736497 0 L 324.9052817736497 -3.5 L 324.9052817736497 -0.5 L 226.34717213682484 -0.5 Z"/><text text-anchor="middle" pointer-events="none" font-size="8px" fill="#000000" x="182.45264088682484" y="3" transform="rotate(180 182.45264088682484 0)" font-family="sans-serif">RECONHECIDO_POR</text></g><g class="relationship" transform="translate(678.4852856170461 -36.41102162202381) rotate(525.456548842471)"><path class="outline" fill="#A5ABB6" stroke="none" d="M 25 0.5 L 46.74108189012635 0.5 L 46.74108189012635 -0.5 L 25 -0.5 Z M 104.74889439012635 0.5 L 126.4899762802527 0.5 L 126.4899762802527 3.5 L 133.4899762802527 0 L 126.4899762802527 -3.5 L 126.4899762802527 -0.5 L 104.74889439012635 -0.5 Z"/><text text-anchor="middle" pointer-events="none" font-size="8px" fill="#000000" x="75.74498814012635" y="3" transform="rotate(180 75.74498814012635 0)" font-family="sans-serif">SITUADO_EM</text></g><g class="relationship" transform="translate(678.4852856170461 -36.41102162202381) rotate(356.3283203724318)"><path class="outline" fill="#A5ABB6" stroke="none" d="M 25 0.5 L 70.04608186757208 0.5 L 70.04608186757208 -0.5 L 25 -0.5 Z M 157.83514436757207 0.5 L 202.88122623514417 0.5 L 202.88122623514417 3.5 L 209.88122623514417 0 L 202.88122623514417 -3.5 L 202.88122623514417 -0.5 L 157.83514436757207 -0.5 Z"/><text text-anchor="middle" pointer-events="none" font-size="8px" fill="#000000" x="113.94061311757208" y="3" font-family="sans-serif">RECONHECIDO_POR</text></g><g class="relationship" transform="translate(-417.2229004808188 -130.17561691097288) rotate(404.57040138268223)"><path class="outline" fill="#A5ABB6" stroke="none" d="M 25 0.5 L 81.2737424004251 0.5 L 81.2737424004251 -0.5 L 25 -0.5 Z M 139.2815549004251 0.5 L 195.5552973008502 0.5 L 195.5552973008502 3.5 L 202.5552973008502 0 L 195.5552973008502 -3.5 L 195.5552973008502 -0.5 L 139.2815549004251 -0.5 Z"/><text text-anchor="middle" pointer-events="none" font-size="8px" fill="#000000" x="110.2776486504251" y="3" font-family="sans-serif">SITUADO_EM</text></g><g class="relationship" transform="translate(-417.2229004808188 -130.17561691097288) rotate(201.52737938853625)"><path class="outline" fill="#A5ABB6" stroke="none" d="M 25 0.5 L 54.215312416237694 0.5 L 54.215312416237694 -0.5 L 25 -0.5 Z M 142.00437491623768 0.5 L 171.2196873324754 0.5 L 171.2196873324754 3.5 L 178.2196873324754 0 L 171.2196873324754 -3.5 L 171.2196873324754 -0.5 L 142.00437491623768 -0.5 Z"/><text text-anchor="middle" pointer-events="none" font-size="8px" fill="#000000" x="98.1098436662377" y="3" transform="rotate(180 98.1098436662377 0)" font-family="sans-serif">RECONHECIDO_POR</text></g><g class="relationship" transform="translate(-95.05172609337066 602.3383981886202) rotate(283.7504362395047)"><path class="outline" fill="#A5ABB6" stroke="none" d="M 25 0.5 L 49.66321948997462 0.5 L 49.66321948997462 -0.5 L 25 -0.5 Z M 107.67103198997462 0.5 L 132.33425147994924 0.5 L 132.33425147994924 3.5 L 139.33425147994924 0 L 132.33425147994924 -3.5 L 132.33425147994924 -0.5 L 107.67103198997462 -0.5 Z"/><text text-anchor="middle" pointer-events="none" font-size="8px" fill="#000000" x="78.66712573997462" y="3" font-family="sans-serif">SITUADO_EM</text></g><g class="relationship" transform="translate(-95.05172609337066 602.3383981886202) rotate(501.04354174052025)"><path class="outline" fill="#A5ABB6" stroke="none" d="M 25 0.5 L 25.265789826991593 0.5 L 25.265789826991593 -0.5 L 25 -0.5 Z M 109.0548523269916 0.5 L 109.32064215398319 0.5 L 109.32064215398319 3.5 L 116.32064215398319 0 L 109.32064215398319 -3.5 L 109.32064215398319 -0.5 L 109.0548523269916 -0.5 Z"/><text text-anchor="middle" pointer-events="none" font-size="8px" fill="#000000" x="67.1603210769916" y="3" transform="rotate(180 67.1603210769916 0)" font-family="sans-serif">RECONHECIDO_P…</text></g><g class="relationship" transform="translate(-266.8159280543957 539.9407397435182) rotate(335.24215617351217)"><path class="outline" fill="#A5ABB6" stroke="none" d="M 25 0.5 L 83.57837296916016 0.5 L 83.57837296916016 -0.5 L 25 -0.5 Z M 141.58618546916017 0.5 L 200.1645584383203 0.5 L 200.1645584383203 3.5 L 207.1645584383203 0 L 200.1645584383203 -3.5 L 200.1645584383203 -0.5 L 141.58618546916017 -0.5 Z"/><text text-anchor="middle" pointer-events="none" font-size="8px" fill="#000000" x="112.58227921916016" y="3" font-family="sans-serif">SITUADO_EM</text></g><g class="relationship" transform="translate(-266.8159280543957 539.9407397435182) rotate(505.30522008929404)"><path class="outline" fill="#A5ABB6" stroke="none" d="M 25 0.5 L 65.10817350832475 0.5 L 65.10817350832475 -0.5 L 25 -0.5 Z M 152.89723600832474 0.5 L 193.0054095166495 0.5 L 193.0054095166495 3.5 L 200.0054095166495 0 L 193.0054095166495 -3.5 L 193.0054095166495 -0.5 L 152.89723600832474 -0.5 Z"/><text text-anchor="middle" pointer-events="none" font-size="8px" fill="#000000" x="109.00270475832475" y="3" transform="rotate(180 109.00270475832475 0)" font-family="sans-serif">RECONHECIDO_POR</text></g><g class="relationship" transform="translate(679.989707873589 421.1734091531382) rotate(199.46304360381998)"><path class="outline" fill="#A5ABB6" stroke="none" d="M 25 0.5 L 92.28010890114814 0.5 L 92.28010890114814 -0.5 L 25 -0.5 Z M 150.28792140114814 0.5 L 217.56803030229628 0.5 L 217.56803030229628 3.5 L 224.56803030229628 0 L 217.56803030229628 -3.5 L 217.56803030229628 -0.5 L 150.28792140114814 -0.5 Z"/><text text-anchor="middle" pointer-events="none" font-size="8px" fill="#000000" x="121.28401515114814" y="3" transform="rotate(180 121.28401515114814 0)" font-family="sans-serif">SITUADO_EM</text></g><g class="relationship" transform="translate(679.989707873589 421.1734091531382) rotate(539.9627861069237)"><path class="outline" fill="#A5ABB6" stroke="none" d="M 25 0.5 L 87.08705954997401 0.5 L 87.08705954997401 -0.5 L 25 -0.5 Z M 174.87612204997401 0.5 L 236.96318159994803 0.5 L 236.96318159994803 3.5 L 243.96318159994803 0 L 236.96318159994803 -3.5 L 236.96318159994803 -0.5 L 174.87612204997401 -0.5 Z"/><text text-anchor="middle" pointer-events="none" font-size="8px" fill="#000000" x="130.98159079997401" y="3" transform="rotate(180 130.98159079997401 0)" font-family="sans-serif">RECONHECIDO_POR</text></g><g class="relationship" transform="translate(-42.0766465107225 826.9086205323399) rotate(336.425637902188)"><path class="outline" fill="#A5ABB6" stroke="none" d="M 25 0.5 L 63.385907942595864 0.5 L 63.385907942595864 -0.5 L 25 -0.5 Z M 121.39372044259586 0.5 L 159.77962838519173 0.5 L 159.77962838519173 3.5 L 166.77962838519173 0 L 159.77962838519173 -3.5 L 159.77962838519173 -0.5 L 121.39372044259586 -0.5 Z"/><text text-anchor="middle" pointer-events="none" font-size="8px" fill="#000000" x="92.38981419259586" y="3" font-family="sans-serif">SITUADO_EM</text></g><g class="relationship" transform="translate(-42.0766465107225 826.9086205323399) rotate(520.5018346793246)"><path class="outline" fill="#A5ABB6" stroke="none" d="M 25 0.5 L 39.02270787766447 0.5 L 39.02270787766447 -0.5 L 25 -0.5 Z M 126.81177037766447 0.5 L 140.83447825532895 0.5 L 140.83447825532895 3.5 L 147.83447825532895 0 L 140.83447825532895 -3.5 L 140.83447825532895 -0.5 L 126.81177037766447 -0.5 Z"/><text text-anchor="middle" pointer-events="none" font-size="8px" fill="#000000" x="82.91723912766447" y="3" transform="rotate(180 82.91723912766447 0)" font-family="sans-serif">RECONHECIDO_POR</text></g><g class="relationship" transform="translate(180.86374712731862 -135.37839410085172) rotate(470.831648653744)"><path class="outline" fill="#A5ABB6" stroke="none" d="M 25 0.5 L 202.77574583843497 0.5 L 202.77574583843497 -0.5 L 25 -0.5 Z M 260.783558338435 0.5 L 438.55930417686994 0.5 L 438.55930417686994 3.5 L 445.55930417686994 0 L 438.55930417686994 -3.5 L 438.55930417686994 -0.5 L 260.783558338435 -0.5 Z"/><text text-anchor="middle" pointer-events="none" font-size="8px" fill="#000000" x="231.77965208843497" y="3" transform="rotate(180 231.77965208843497 0)" font-family="sans-serif">SITUADO_EM</text></g><g class="relationship" transform="translate(180.86374712731862 -135.37839410085172) rotate(538.3149613484356)"><path class="outline" fill="#A5ABB6" stroke="none" d="M 25 0.5 L 73.315557543886 0.5 L 73.315557543886 -0.5 L 25 -0.5 Z M 161.104620043886 0.5 L 209.420177587772 0.5 L 209.420177587772 3.5 L 216.420177587772 0 L 209.420177587772 -3.5 L 209.420177587772 -0.5 L 161.104620043886 -0.5 Z"/><text text-anchor="middle" pointer-events="none" font-size="8px" fill="#000000" x="117.210088793886" y="3" transform="rotate(180 117.210088793886 0)" font-family="sans-serif">RECONHECIDO_POR</text></g><g class="relationship" transform="translate(775.5238668052139 192.34936100790176) rotate(532.6438933813102)"><path class="outline" fill="#A5ABB6" stroke="none" d="M 25 0.5 L 107.92780614413385 0.5 L 107.92780614413385 -0.5 L 25 -0.5 Z M 165.93561864413385 0.5 L 248.8634247882677 0.5 L 248.8634247882677 3.5 L 255.8634247882677 0 L 248.8634247882677 -3.5 L 248.8634247882677 -0.5 L 165.93561864413385 -0.5 Z"/><text text-anchor="middle" pointer-events="none" font-size="8px" fill="#000000" x="136.93171239413385" y="3" transform="rotate(180 136.93171239413385 0)" font-family="sans-serif">SITUADO_EM</text></g><g class="relationship" transform="translate(775.5238668052139 192.34936100790176) rotate(336.0275540836129)"><path class="outline" fill="#A5ABB6" stroke="none" d="M 25 0.5 L 89.08258222792301 0.5 L 89.08258222792301 -0.5 L 25 -0.5 Z M 176.871644727923 0.5 L 240.95422695584602 0.5 L 240.95422695584602 3.5 L 247.95422695584602 0 L 240.95422695584602 -3.5 L 240.95422695584602 -0.5 L 176.871644727923 -0.5 Z"/><text text-anchor="middle" pointer-events="none" font-size="8px" fill="#000000" x="132.977113477923" y="3" font-family="sans-serif">RECONHECIDO_POR</text></g><g class="relationship" transform="translate(-544.150047205896 435.7423053457454) rotate(350.72593676779593)"><path class="outline" fill="#A5ABB6" stroke="none" d="M 25 0.5 L 78.76726085285907 0.5 L 78.76726085285907 -0.5 L 25 -0.5 Z M 136.77507335285907 0.5 L 190.54233420571813 0.5 L 190.54233420571813 3.5 L 197.54233420571813 0 L 190.54233420571813 -3.5 L 190.54233420571813 -0.5 L 136.77507335285907 -0.5 Z"/><text text-anchor="middle" pointer-events="none" font-size="8px" fill="#000000" x="107.77116710285907" y="3" font-family="sans-serif">SITUADO_EM</text></g><g class="relationship" transform="translate(-544.150047205896 435.7423053457454) rotate(522.9971974781172)"><path class="outline" fill="#A5ABB6" stroke="none" d="M 25 0.5 L 70.54647987879488 0.5 L 70.54647987879488 -0.5 L 25 -0.5 Z M 158.33554237879488 0.5 L 203.88202225758977 0.5 L 203.88202225758977 3.5 L 210.88202225758977 0 L 203.88202225758977 -3.5 L 203.88202225758977 -0.5 L 158.33554237879488 -0.5 Z"/><text text-anchor="middle" pointer-events="none" font-size="8px" fill="#000000" x="114.44101112879488" y="3" transform="rotate(180 114.44101112879488 0)" font-family="sans-serif">RECONHECIDO_POR</text></g><g class="relationship" transform="translate(681.2593601974593 300.79811788644105) rotate(531.0591953178125)"><path class="outline" fill="#A5ABB6" stroke="none" d="M 25 0.5 L 87.23930038393075 0.5 L 87.23930038393075 -0.5 L 25 -0.5 Z M 145.24711288393075 0.5 L 207.4864132678615 0.5 L 207.4864132678615 3.5 L 214.4864132678615 0 L 207.4864132678615 -3.5 L 207.4864132678615 -0.5 L 145.24711288393075 -0.5 Z"/><text text-anchor="middle" pointer-events="none" font-size="8px" fill="#000000" x="116.24320663393075" y="3" transform="rotate(180 116.24320663393075 0)" font-family="sans-serif">SITUADO_EM</text></g><g class="relationship" transform="translate(681.2593601974593 300.79811788644105) rotate(337.82957974877274)"><path class="outline" fill="#A5ABB6" stroke="none" d="M 25 0.5 L 85.36938692346635 0.5 L 85.36938692346635 -0.5 L 25 -0.5 Z M 173.15844942346635 0.5 L 233.5278363469327 0.5 L 233.5278363469327 3.5 L 240.5278363469327 0 L 233.5278363469327 -3.5 L 233.5278363469327 -0.5 L 173.15844942346635 -0.5 Z"/><text text-anchor="middle" pointer-events="none" font-size="8px" fill="#000000" x="129.26391817346635" y="3" font-family="sans-serif">RECONHECIDO_POR</text></g><g class="relationship" transform="translate(681.2593601974593 300.79811788644105) rotate(385.02979029287144)"><path class="outline" fill="#A5ABB6" stroke="none" d="M 25 0.5 L 95.92556429616232 0.5 L 95.92556429616232 -0.5 L 25 -0.5 Z M 183.71462679616232 0.5 L 254.64019109232464 0.5 L 254.64019109232464 3.5 L 261.64019109232464 0 L 254.64019109232464 -3.5 L 254.64019109232464 -0.5 L 183.71462679616232 -0.5 Z"/><text text-anchor="middle" pointer-events="none" font-size="8px" fill="#000000" x="139.82009554616232" y="3" font-family="sans-serif">RECONHECIDO_POR</text></g><g class="relationship" transform="translate(681.2593601974593 300.79811788644105) rotate(365.2183793644113)"><path class="outline" fill="#A5ABB6" stroke="none" d="M 25 0.5 L 49.30272255792934 0.5 L 49.30272255792934 -0.5 L 25 -0.5 Z M 137.09178505792934 0.5 L 161.39450761585869 0.5 L 161.39450761585869 3.5 L 168.39450761585869 0 L 161.39450761585869 -3.5 L 161.39450761585869 -0.5 L 137.09178505792934 -0.5 Z"/><text text-anchor="middle" pointer-events="none" font-size="8px" fill="#000000" x="93.19725380792934" y="3" font-family="sans-serif">RECONHECIDO_POR</text></g><g class="relationship" transform="translate(365.1410212703535 761.8331873980895) rotate(222.03022596392827)"><path class="outline" fill="#A5ABB6" stroke="none" d="M 25 0.5 L 56.834254958008884 0.5 L 56.834254958008884 -0.5 L 25 -0.5 Z M 114.84206745800888 0.5 L 146.67632241601777 0.5 L 146.67632241601777 3.5 L 153.67632241601777 0 L 146.67632241601777 -3.5 L 146.67632241601777 -0.5 L 114.84206745800888 -0.5 Z"/><text text-anchor="middle" pointer-events="none" font-size="8px" fill="#000000" x="85.83816120800888" y="3" transform="rotate(180 85.83816120800888 0)" font-family="sans-serif">SITUADO_EM</text></g><g class="relationship" transform="translate(365.1410212703535 761.8331873980895) rotate(273.8233173980028)"><path class="outline" fill="#A5ABB6" stroke="none" d="M 25 0.5 L 26.440223487983204 0.5 L 26.440223487983204 -0.5 L 25 -0.5 Z M 88.4441297379832 0.5 L 89.88435322596641 0.5 L 89.88435322596641 3.5 L 96.88435322596641 0 L 89.88435322596641 -3.5 L 89.88435322596641 -0.5 L 88.4441297379832 -0.5 Z"/><text text-anchor="middle" pointer-events="none" font-size="8px" fill="#000000" x="57.442176612983204" y="3" font-family="sans-serif">RECONHECI…</text></g><g class="relationship" transform="translate(-55.99057753814493 442.71392361463205) rotate(361.2992792217011)"><path class="outline" fill="#A5ABB6" stroke="none" d="M 25 0.5 L 49.62778933759742 0.5 L 49.62778933759742 -0.5 L 25 -0.5 Z M 145.86216433759742 0.5 L 170.48995367519484 0.5 L 170.48995367519484 3.5 L 177.48995367519484 0 L 170.48995367519484 -3.5 L 170.48995367519484 -0.5 L 145.86216433759742 -0.5 Z"/><text text-anchor="middle" pointer-events="none" font-size="8px" fill="#000000" x="97.74497683759742" y="3" font-family="sans-serif">CARACTERIZADO_POR</text></g><g class="relationship" transform="translate(-55.99057753814493 442.71392361463205) rotate(222.67618884664876)"><path class="outline" fill="#A5ABB6" stroke="none" d="M 25 0.5 L 33.78766622806576 0.5 L 33.78766622806576 -0.5 L 25 -0.5 Z M 130.02204122806575 0.5 L 138.80970745613152 0.5 L 138.80970745613152 3.5 L 145.80970745613152 0 L 138.80970745613152 -3.5 L 138.80970745613152 -0.5 L 130.02204122806575 -0.5 Z"/><text text-anchor="middle" pointer-events="none" font-size="8px" fill="#000000" x="81.90485372806576" y="3" transform="rotate(180 81.90485372806576 0)" font-family="sans-serif">CARACTERIZADO_POR</text></g><g class="relationship" transform="translate(-513.0263726471255 506.0773140832962) rotate(330.6047316948476)"><path class="outline" fill="#A5ABB6" stroke="none" d="M 25 0.5 L 75.67905890402726 0.5 L 75.67905890402726 -0.5 L 25 -0.5 Z M 133.68687140402727 0.5 L 184.36593030805452 0.5 L 184.36593030805452 3.5 L 191.36593030805452 0 L 184.36593030805452 -3.5 L 184.36593030805452 -0.5 L 133.68687140402727 -0.5 Z"/><text text-anchor="middle" pointer-events="none" font-size="8px" fill="#000000" x="104.68296515402726" y="3" font-family="sans-serif">SITUADO_EM</text></g><g class="relationship" transform="translate(-513.0263726471255 506.0773140832962) rotate(512.675068429705)"><path class="outline" fill="#A5ABB6" stroke="none" d="M 25 0.5 L 68.59145376500076 0.5 L 68.59145376500076 -0.5 L 25 -0.5 Z M 156.38051626500078 0.5 L 199.97197003000153 0.5 L 199.97197003000153 3.5 L 206.97197003000153 0 L 199.97197003000153 -3.5 L 199.97197003000153 -0.5 L 156.38051626500078 -0.5 Z"/><text text-anchor="middle" pointer-events="none" font-size="8px" fill="#000000" x="112.48598501500076" y="3" transform="rotate(180 112.48598501500076 0)" font-family="sans-serif">RECONHECIDO_POR</text></g><g class="relationship" transform="translate(161.44345830621802 447.6454554325044) rotate(485.6945533536177)"><path class="outline" fill="#A5ABB6" stroke="none" d="M 40 0.5 L 70.40563862621961 0.5 L 70.40563862621961 -0.5 L 40 -0.5 Z M 133.75329487621963 0.5 L 164.15893350243923 0.5 L 164.15893350243923 3.5 L 171.15893350243923 0 L 164.15893350243923 -3.5 L 164.15893350243923 -0.5 L 133.75329487621963 -0.5 Z"/><text text-anchor="middle" pointer-events="none" font-size="8px" fill="#000000" x="102.07946675121961" y="3" transform="rotate(180 102.07946675121961 0)" font-family="sans-serif">ADJACENTE_A</text></g><g class="relationship" transform="translate(161.44345830621802 447.6454554325044) rotate(353.60605515851967)"><path class="outline" fill="#A5ABB6" stroke="none" d="M 40 0.5 L 70.6311887854483 0.5 L 70.6311887854483 -0.5 L 40 -0.5 Z M 158.4202512854483 0.5 L 189.0514400708966 0.5 L 189.0514400708966 3.5 L 196.0514400708966 0 L 189.0514400708966 -3.5 L 189.0514400708966 -0.5 L 158.4202512854483 -0.5 Z"/><text text-anchor="middle" pointer-events="none" font-size="8px" fill="#000000" x="114.5257200354483" y="3" font-family="sans-serif">RECONHECIDO_POR</text></g><g class="relationship" transform="translate(161.44345830621802 447.6454554325044) rotate(399.84588010227)"><path class="outline" fill="#A5ABB6" stroke="none" d="M 40 0.5 L 91.20479655695885 0.5 L 91.20479655695885 -0.5 L 40 -0.5 Z M 178.99385905695885 0.5 L 230.1986556139177 0.5 L 230.1986556139177 3.5 L 237.1986556139177 0 L 230.1986556139177 -3.5 L 230.1986556139177 -0.5 L 178.99385905695885 -0.5 Z"/><text text-anchor="middle" pointer-events="none" font-size="8px" fill="#000000" x="135.09932780695885" y="3" font-family="sans-serif">RECONHECIDO_POR</text></g><g class="relationship" transform="translate(161.44345830621802 447.6454554325044) rotate(383.18287154484636)"><path class="outline" fill="#A5ABB6" stroke="none" d="M 40 0.5 L 161.47951528161445 0.5 L 161.47951528161445 -0.5 L 40 -0.5 Z M 249.26857778161445 0.5 L 370.7480930632289 0.5 L 370.7480930632289 3.5 L 377.7480930632289 0 L 370.7480930632289 -3.5 L 370.7480930632289 -0.5 L 249.26857778161445 -0.5 Z"/><text text-anchor="middle" pointer-events="none" font-size="8px" fill="#000000" x="205.37404653161445" y="3" font-family="sans-serif">RECONHECIDO_POR</text></g><g class="relationship" transform="translate(161.44345830621802 447.6454554325044) rotate(367.19280434992675)"><path class="outline" fill="#A5ABB6" stroke="none" d="M 40 0.5 L 160.24471217627377 0.5 L 160.24471217627377 -0.5 L 40 -0.5 Z M 248.03377467627377 0.5 L 368.27848685254753 0.5 L 368.27848685254753 3.5 L 375.27848685254753 0 L 368.27848685254753 -3.5 L 368.27848685254753 -0.5 L 248.03377467627377 -0.5 Z"/><text text-anchor="middle" pointer-events="none" font-size="8px" fill="#000000" x="204.13924342627377" y="3" font-family="sans-serif">RECONHECIDO_POR</text></g><g class="relationship" transform="translate(-547.6516281987788 -83.92547307887253) rotate(457.0820865353117)"><path class="outline" fill="#A5ABB6" stroke="none" d="M 40 0.5 L 93.72831576850226 0.5 L 93.72831576850226 -0.5 L 40 -0.5 Z M 157.07597201850226 0.5 L 210.8042877870045 0.5 L 210.8042877870045 3.5 L 217.8042877870045 0 L 210.8042877870045 -3.5 L 210.8042877870045 -0.5 L 157.07597201850226 -0.5 Z"/><text text-anchor="middle" pointer-events="none" font-size="8px" fill="#000000" x="125.40214389350226" y="3" transform="rotate(180 125.40214389350226 0)" font-family="sans-serif">ADJACENTE_A</text></g><g class="relationship" transform="translate(-547.6516281987788 -83.92547307887253) rotate(408.4554283880017)"><path class="outline" fill="#A5ABB6" stroke="none" d="M 40 0.5 L 232.50794489315626 0.5 L 232.50794489315626 -0.5 L 40 -0.5 Z M 295.85560114315626 0.5 L 488.3635460363125 0.5 L 488.3635460363125 3.5 L 495.3635460363125 0 L 488.3635460363125 -3.5 L 488.3635460363125 -0.5 L 295.85560114315626 -0.5 Z"/><text text-anchor="middle" pointer-events="none" font-size="8px" fill="#000000" x="264.18177301815626" y="3" font-family="sans-serif">ADJACENTE_A</text></g><g class="relationship" transform="translate(-547.6516281987788 -83.92547307887253) rotate(210.0544130095036)"><path class="outline" fill="#A5ABB6" stroke="none" d="M 40 0.5 L 81.6350138729604 0.5 L 81.6350138729604 -0.5 L 40 -0.5 Z M 169.4240763729604 0.5 L 211.0590902459208 0.5 L 211.0590902459208 3.5 L 218.0590902459208 0 L 211.0590902459208 -3.5 L 211.0590902459208 -0.5 L 169.4240763729604 -0.5 Z"/><text text-anchor="middle" pointer-events="none" font-size="8px" fill="#000000" x="125.5295451229604" y="3" transform="rotate(180 125.5295451229604 0)" font-family="sans-serif">RECONHECIDO_POR</text></g><g class="relationship" transform="translate(-265.8642257284745 -126.36615697418677) rotate(409.4071309909709)"><path class="outline" fill="#A5ABB6" stroke="none" d="M 25 0.5 L 110.09883171386747 0.5 L 110.09883171386747 -0.5 L 25 -0.5 Z M 168.10664421386747 0.5 L 253.20547592773494 0.5 L 253.20547592773494 3.5 L 260.20547592773494 0 L 253.20547592773494 -3.5 L 253.20547592773494 -0.5 L 168.10664421386747 -0.5 Z"/><text text-anchor="middle" pointer-events="none" font-size="8px" fill="#000000" x="139.10273796386747" y="3" font-family="sans-serif">SITUADO_EM</text></g><g class="relationship selected" transform="translate(-265.8642257284745 -126.36615697418677) rotate(220.21368754899487)"><path class="outline" fill="#A5ABB6" stroke="none" d="M 25 0.5 L 60.0083565833975 0.5 L 60.0083565833975 -0.5 L 25 -0.5 Z M 147.7974190833975 0.5 L 182.805775666795 0.5 L 182.805775666795 3.5 L 189.805775666795 0 L 182.805775666795 -3.5 L 182.805775666795 -0.5 L 147.7974190833975 -0.5 Z"/><text text-anchor="middle" pointer-events="none" font-size="8px" fill="#000000" x="103.9028878333975" y="3" transform="rotate(180 103.9028878333975 0)" font-family="sans-serif">RECONHECIDO_POR</text></g><g class="relationship" transform="translate(736.5671732285907 374.353307583786) rotate(187.09604613692431)"><path class="outline" fill="#A5ABB6" stroke="none" d="M 25 0.5 L 114.56473660512594 0.5 L 114.56473660512594 -0.5 L 25 -0.5 Z M 172.57254910512594 0.5 L 262.1372857102519 0.5 L 262.1372857102519 3.5 L 269.1372857102519 0 L 262.1372857102519 -3.5 L 262.1372857102519 -0.5 L 172.57254910512594 -0.5 Z"/><text text-anchor="middle" pointer-events="none" font-size="8px" fill="#000000" x="143.56864285512594" y="3" transform="rotate(180 143.56864285512594 0)" font-family="sans-serif">SITUADO_EM</text></g><g class="relationship" transform="translate(736.5671732285907 374.353307583786) rotate(532.141168588297)"><path class="outline" fill="#A5ABB6" stroke="none" d="M 25 0.5 L 116.99010879819105 0.5 L 116.99010879819105 -0.5 L 25 -0.5 Z M 204.77917129819105 0.5 L 296.7692800963821 0.5 L 296.7692800963821 3.5 L 303.7692800963821 0 L 296.7692800963821 -3.5 L 296.7692800963821 -0.5 L 204.77917129819105 -0.5 Z"/><text text-anchor="middle" pointer-events="none" font-size="8px" fill="#000000" x="160.88464004819105" y="3" transform="rotate(180 160.88464004819105 0)" font-family="sans-serif">RECONHECIDO_POR</text></g><g class="relationship" transform="translate(677.4299803706419 110.74499829785947) rotate(506.91650817652584)"><path class="outline" fill="#A5ABB6" stroke="none" d="M 25 0.5 L 75.18380499632181 0.5 L 75.18380499632181 -0.5 L 25 -0.5 Z M 133.1916174963218 0.5 L 183.37542249264362 0.5 L 183.37542249264362 3.5 L 190.37542249264362 0 L 183.37542249264362 -3.5 L 183.37542249264362 -0.5 L 133.1916174963218 -0.5 Z"/><text text-anchor="middle" pointer-events="none" font-size="8px" fill="#000000" x="104.18771124632181" y="3" transform="rotate(180 104.18771124632181 0)" font-family="sans-serif">SITUADO_EM</text></g><g class="relationship" transform="translate(677.4299803706419 110.74499829785947) rotate(326.9146025224285)"><path class="outline" fill="#A5ABB6" stroke="none" d="M 25 0.5 L 94.54825172246063 0.5 L 94.54825172246063 -0.5 L 25 -0.5 Z M 182.33731422246063 0.5 L 251.88556594492127 0.5 L 251.88556594492127 3.5 L 258.88556594492127 0 L 251.88556594492127 -3.5 L 251.88556594492127 -0.5 L 182.33731422246063 -0.5 Z"/><text text-anchor="middle" pointer-events="none" font-size="8px" fill="#000000" x="138.44278297246063" y="3" font-family="sans-serif">RECONHECIDO_POR</text></g><g class="relationship" transform="translate(176.96641119364722 147.35248701888) rotate(452.9591394025084)"><path class="outline" fill="#A5ABB6" stroke="none" d="M 40 0.5 L 115.17312806717851 0.5 L 115.17312806717851 -0.5 L 40 -0.5 Z M 178.5207843171785 0.5 L 253.69391238435702 0.5 L 253.69391238435702 3.5 L 260.693912384357 0 L 253.69391238435702 -3.5 L 253.69391238435702 -0.5 L 178.5207843171785 -0.5 Z"/><text text-anchor="middle" pointer-events="none" font-size="8px" fill="#000000" x="146.8469561921785" y="3" transform="rotate(180 146.8469561921785 0)" font-family="sans-serif">ADJACENTE_A</text></g><g class="relationship" transform="translate(232.42172713473286 642.205359714664) rotate(249.9572986779342)"><path class="outline" fill="#A5ABB6" stroke="none" d="M 25 0.5 L 44.434093274522596 0.5 L 44.434093274522596 -0.5 L 25 -0.5 Z M 140.66846827452258 0.5 L 160.1025615490452 0.5 L 160.1025615490452 3.5 L 167.1025615490452 0 L 160.1025615490452 -3.5 L 160.1025615490452 -0.5 L 140.66846827452258 -0.5 Z"/><text text-anchor="middle" pointer-events="none" font-size="8px" fill="#000000" x="92.5512807745226" y="3" transform="rotate(180 92.5512807745226 0)" font-family="sans-serif">CARACTERIZADO_POR</text></g><g class="relationship" transform="translate(-324.5166149394506 399.8780342031407) rotate(327.78696810305377)"><path class="outline" fill="#A5ABB6" stroke="none" d="M 25 0.5 L 25.735319144474488 0.5 L 25.735319144474488 -0.5 L 25 -0.5 Z M 108.18453789447449 0.5 L 108.91985703894898 0.5 L 108.91985703894898 3.5 L 115.91985703894898 0 L 108.91985703894898 -3.5 L 108.91985703894898 -0.5 L 108.18453789447449 -0.5 Z"/><text text-anchor="middle" pointer-events="none" font-size="8px" fill="#000000" x="66.95992851947449" y="3" font-family="sans-serif">CARACTERIZADO…</text></g><g class="relationship" transform="translate(496.9720773057386 228.309949857849) rotate(506.8273013527798)"><path class="outline" fill="#A5ABB6" stroke="none" d="M 25 0.5 L 141.31205074470765 0.5 L 141.31205074470765 -0.5 L 25 -0.5 Z M 237.54642574470765 0.5 L 353.8584764894153 0.5 L 353.8584764894153 3.5 L 360.8584764894153 0 L 353.8584764894153 -3.5 L 353.8584764894153 -0.5 L 237.54642574470765 -0.5 Z"/><text text-anchor="middle" pointer-events="none" font-size="8px" fill="#000000" x="189.42923824470765" y="3" transform="rotate(180 189.42923824470765 0)" font-family="sans-serif">CARACTERIZADO_POR</text></g><g class="relationship" transform="translate(496.9720773057386 228.309949857849) rotate(194.19723707356525)"><path class="outline" fill="#A5ABB6" stroke="none" d="M 25 0.5 L 105.92654695633007 0.5 L 105.92654695633007 -0.5 L 25 -0.5 Z M 202.16092195633007 0.5 L 283.08746891266014 0.5 L 283.08746891266014 3.5 L 290.08746891266014 0 L 283.08746891266014 -3.5 L 283.08746891266014 -0.5 L 202.16092195633007 -0.5 Z"/><text text-anchor="middle" pointer-events="none" font-size="8px" fill="#000000" x="154.04373445633007" y="3" transform="rotate(180 154.04373445633007 0)" font-family="sans-serif">CARACTERIZADO_POR</text></g><g class="relationship" transform="translate(-255.1150829402244 29.519307309879196) rotate(437.7211680641229)"><path class="outline" fill="#A5ABB6" stroke="none" d="M 25 0.5 L 87.86654462134823 0.5 L 87.86654462134823 -0.5 L 25 -0.5 Z M 184.10091962134823 0.5 L 246.96746424269645 0.5 L 246.96746424269645 3.5 L 253.96746424269645 0 L 246.96746424269645 -3.5 L 246.96746424269645 -0.5 L 184.10091962134823 -0.5 Z"/><text text-anchor="middle" pointer-events="none" font-size="8px" fill="#000000" x="135.98373212134823" y="3" font-family="sans-serif">CARACTERIZADO_POR</text></g><g class="relationship" transform="translate(-255.1150829402244 29.519307309879196) rotate(201.1961408406342)"><path class="outline" fill="#A5ABB6" stroke="none" d="M 25 0.5 L 97.76441475888689 0.5 L 97.76441475888689 -0.5 L 25 -0.5 Z M 193.9987897588869 0.5 L 266.7632045177738 0.5 L 266.7632045177738 3.5 L 273.7632045177738 0 L 266.7632045177738 -3.5 L 266.7632045177738 -0.5 L 193.9987897588869 -0.5 Z"/><text text-anchor="middle" pointer-events="none" font-size="8px" fill="#000000" x="145.8816022588869" y="3" transform="rotate(180 145.8816022588869 0)" font-family="sans-serif">CARACTERIZADO_POR</text></g><g class="relationship" transform="translate(-170.16975879414306 575.0291792544448) rotate(310.79198812286063)"><path class="outline" fill="#A5ABB6" stroke="none" d="M 25 0.5 L 54.88060654734737 0.5 L 54.88060654734737 -0.5 L 25 -0.5 Z M 112.88841904734737 0.5 L 142.76902559469474 0.5 L 142.76902559469474 3.5 L 149.76902559469474 0 L 142.76902559469474 -3.5 L 142.76902559469474 -0.5 L 112.88841904734737 -0.5 Z"/><text text-anchor="middle" pointer-events="none" font-size="8px" fill="#000000" x="83.88451279734737" y="3" font-family="sans-serif">SITUADO_EM</text></g><g class="relationship" transform="translate(-170.16975879414306 575.0291792544448) rotate(503.3462540462719)"><path class="outline" fill="#A5ABB6" stroke="none" d="M 25 0.5 L 65.20408767228993 0.5 L 65.20408767228993 -0.5 L 25 -0.5 Z M 152.99315017228992 0.5 L 193.19723784457986 0.5 L 193.19723784457986 3.5 L 200.19723784457986 0 L 193.19723784457986 -3.5 L 193.19723784457986 -0.5 L 152.99315017228992 -0.5 Z"/><text text-anchor="middle" pointer-events="none" font-size="8px" fill="#000000" x="109.09861892228993" y="3" transform="rotate(180 109.09861892228993 0)" font-family="sans-serif">RECONHECIDO_POR</text></g><g class="relationship" transform="translate(525.073727195343 3.388052788563435) rotate(517.5318050403158)"><path class="outline" fill="#A5ABB6" stroke="none" d="M 25 0.5 L 129.23385561972873 0.5 L 129.23385561972873 -0.5 L 25 -0.5 Z M 225.46823061972873 0.5 L 329.70208623945746 0.5 L 329.70208623945746 3.5 L 336.70208623945746 0 L 329.70208623945746 -3.5 L 329.70208623945746 -0.5 L 225.46823061972873 -0.5 Z"/><text text-anchor="middle" pointer-events="none" font-size="8px" fill="#000000" x="177.35104311972873" y="3" transform="rotate(180 177.35104311972873 0)" font-family="sans-serif">CARACTERIZADO_POR</text></g><g class="relationship" transform="translate(419.61615844991866 -14.727795702147944) rotate(422.3672256704907)"><path class="outline" fill="#A5ABB6" stroke="none" d="M 25 0.5 L 58.735098242706016 0.5 L 58.735098242706016 -0.5 L 25 -0.5 Z M 116.74291074270602 0.5 L 150.47800898541203 0.5 L 150.47800898541203 3.5 L 157.47800898541203 0 L 150.47800898541203 -3.5 L 150.47800898541203 -0.5 L 116.74291074270602 -0.5 Z"/><text text-anchor="middle" pointer-events="none" font-size="8px" fill="#000000" x="87.73900449270602" y="3" font-family="sans-serif">SITUADO_EM</text></g><g class="relationship" transform="translate(419.61615844991866 -14.727795702147944) rotate(221.08174279447206)"><path class="outline" fill="#A5ABB6" stroke="none" d="M 25 0.5 L 118.01423944812393 0.5 L 118.01423944812393 -0.5 L 25 -0.5 Z M 205.80330194812393 0.5 L 298.81754139624786 0.5 L 298.81754139624786 3.5 L 305.81754139624786 0 L 298.81754139624786 -3.5 L 298.81754139624786 -0.5 L 205.80330194812393 -0.5 Z"/><text text-anchor="middle" pointer-events="none" font-size="8px" fill="#000000" x="161.90877069812393" y="3" transform="rotate(180 161.90877069812393 0)" font-family="sans-serif">RECONHECIDO_POR</text></g><g class="relationship" transform="translate(504.2499855451316 146.93648320478226) rotate(539.9271724833122)"><path class="outline" fill="#A5ABB6" stroke="none" d="M 25 0.5 L 104.52473186928705 0.5 L 104.52473186928705 -0.5 L 25 -0.5 Z M 200.75910686928705 0.5 L 280.2838387385741 0.5 L 280.2838387385741 3.5 L 287.2838387385741 0 L 280.2838387385741 -3.5 L 280.2838387385741 -0.5 L 200.75910686928705 -0.5 Z"/><text text-anchor="middle" pointer-events="none" font-size="8px" fill="#000000" x="152.64191936928705" y="3" transform="rotate(180 152.64191936928705 0)" font-family="sans-serif">CARACTERIZADO_POR</text></g><g class="relationship" transform="translate(504.2499855451316 146.93648320478226) rotate(498.7428473488987)"><path class="outline" fill="#A5ABB6" stroke="none" d="M 25 0.5 L 168.88621219825941 0.5 L 168.88621219825941 -0.5 L 25 -0.5 Z M 265.1205871982594 0.5 L 409.00679939651883 0.5 L 409.00679939651883 3.5 L 416.00679939651883 0 L 409.00679939651883 -3.5 L 409.00679939651883 -0.5 L 265.1205871982594 -0.5 Z"/><text text-anchor="middle" pointer-events="none" font-size="8px" fill="#000000" x="217.00339969825941" y="3" transform="rotate(180 217.00339969825941 0)" font-family="sans-serif">CARACTERIZADO_POR</text></g><g class="relationship" transform="translate(13.521903532670152 304.42015765866034) rotate(536.5733687684385)"><path class="outline" fill="#A5ABB6" stroke="none" d="M 25 0.5 L 44.12694821222772 0.5 L 44.12694821222772 -0.5 L 25 -0.5 Z M 140.36132321222772 0.5 L 159.48827142445543 0.5 L 159.48827142445543 3.5 L 166.48827142445543 0 L 159.48827142445543 -3.5 L 159.48827142445543 -0.5 L 140.36132321222772 -0.5 Z"/><text text-anchor="middle" pointer-events="none" font-size="8px" fill="#000000" x="92.24413571222772" y="3" transform="rotate(180 92.24413571222772 0)" font-family="sans-serif">CARACTERIZADO_POR</text></g><g class="relationship" transform="translate(13.521903532670152 304.42015765866034) rotate(404.07588775032247)"><path class="outline" fill="#A5ABB6" stroke="none" d="M 25 0.5 L 43.83215961914158 0.5 L 43.83215961914158 -0.5 L 25 -0.5 Z M 140.06653461914158 0.5 L 158.89869423828316 0.5 L 158.89869423828316 3.5 L 165.89869423828316 0 L 158.89869423828316 -3.5 L 158.89869423828316 -0.5 L 140.06653461914158 -0.5 Z"/><text text-anchor="middle" pointer-events="none" font-size="8px" fill="#000000" x="91.94934711914158" y="3" font-family="sans-serif">CARACTERIZADO_POR</text></g><g class="relationship" transform="translate(13.521903532670152 304.42015765866034) rotate(316.1397933530194)"><path class="outline" fill="#A5ABB6" stroke="none" d="M 25 0.5 L 54.22340567467165 0.5 L 54.22340567467165 -0.5 L 25 -0.5 Z M 150.45778067467165 0.5 L 179.6811863493433 0.5 L 179.6811863493433 3.5 L 186.6811863493433 0 L 179.6811863493433 -3.5 L 179.6811863493433 -0.5 L 150.45778067467165 -0.5 Z"/><text text-anchor="middle" pointer-events="none" font-size="8px" fill="#000000" x="102.34059317467165" y="3" font-family="sans-serif">CARACTERIZADO_POR</text></g><g class="relationship" transform="translate(133.6973955184208 750.2084770363907) rotate(233.93489487486272)"><path class="outline" fill="#A5ABB6" stroke="none" d="M 25 0.5 L 26.625098600491057 0.5 L 26.625098600491057 -0.5 L 25 -0.5 Z M 113.52353610049106 0.5 L 115.14863470098211 0.5 L 115.14863470098211 3.5 L 122.14863470098211 0 L 115.14863470098211 -3.5 L 115.14863470098211 -0.5 L 113.52353610049106 -0.5 Z"/><text text-anchor="middle" pointer-events="none" font-size="8px" fill="#000000" x="70.07431735049106" y="3" transform="rotate(180 70.07431735049106 0)" font-family="sans-serif">CARACTERIZADO_…</text></g><g class="relationship" transform="translate(133.6973955184208 750.2084770363907) rotate(275.23956412466896)"><path class="outline" fill="#A5ABB6" stroke="none" d="M 25 0.5 L 92.79909375574476 0.5 L 92.79909375574476 -0.5 L 25 -0.5 Z M 189.03346875574476 0.5 L 256.8325625114895 0.5 L 256.8325625114895 3.5 L 263.8325625114895 0 L 256.8325625114895 -3.5 L 256.8325625114895 -0.5 L 189.03346875574476 -0.5 Z"/><text text-anchor="middle" pointer-events="none" font-size="8px" fill="#000000" x="140.91628125574476" y="3" font-family="sans-serif">CARACTERIZADO_POR</text></g><g class="relationship" transform="translate(-80.28680825705186 90.20527609999111) rotate(372.5245264999552)"><path class="outline" fill="#A5ABB6" stroke="none" d="M 25 0.5 L 72.64493019089542 0.5 L 72.64493019089542 -0.5 L 25 -0.5 Z M 168.87930519089542 0.5 L 216.52423538179085 0.5 L 216.52423538179085 3.5 L 223.52423538179085 0 L 216.52423538179085 -3.5 L 216.52423538179085 -0.5 L 168.87930519089542 -0.5 Z"/><text text-anchor="middle" pointer-events="none" font-size="8px" fill="#000000" x="120.76211769089542" y="3" font-family="sans-serif">CARACTERIZADO_POR</text></g><g class="relationship" transform="translate(-80.28680825705186 90.20527609999111) rotate(476.3688746643726)"><path class="outline" fill="#A5ABB6" stroke="none" d="M 25 0.5 L 67.31618277602784 0.5 L 67.31618277602784 -0.5 L 25 -0.5 Z M 163.55055777602786 0.5 L 205.8667405520557 0.5 L 205.8667405520557 3.5 L 212.8667405520557 0 L 205.8667405520557 -3.5 L 205.8667405520557 -0.5 L 163.55055777602786 -0.5 Z"/><text text-anchor="middle" pointer-events="none" font-size="8px" fill="#000000" x="115.43337027602784" y="3" transform="rotate(180 115.43337027602784 0)" font-family="sans-serif">CARACTERIZADO_POR</text></g><g class="relationship" transform="translate(444.6828423516871 338.0176469521613) rotate(518.8410700800691)"><path class="outline" fill="#A5ABB6" stroke="none" d="M 25 0.5 L 92.74031566222402 0.5 L 92.74031566222402 -0.5 L 25 -0.5 Z M 188.97469066222402 0.5 L 256.71500632444804 0.5 L 256.71500632444804 3.5 L 263.71500632444804 0 L 256.71500632444804 -3.5 L 256.71500632444804 -0.5 L 188.97469066222402 -0.5 Z"/><text text-anchor="middle" pointer-events="none" font-size="8px" fill="#000000" x="140.85750316222402" y="3" transform="rotate(180 140.85750316222402 0)" font-family="sans-serif">CARACTERIZADO_POR</text></g></g><g class="layer nodes"><g class="node" aria-label="graph-node0" transform="translate(573.4538836207497,499.64190795265404)"><circle class="outline" cx="0" cy="0" r="40" fill="#FFC454" stroke="#d7a013" stroke-width="2px"/><text class="caption" text-anchor="middle" pointer-events="none" x="0" y="-5" font-size="10px" fill="#2A2C34" font-family="sans-serif"> Reservas de</text><text class="caption" text-anchor="middle" pointer-events="none" x="0" y="5" font-size="10px" fill="#2A2C34" font-family="sans-serif"> Mata Atlântica</text><text class="caption" text-anchor="middle" pointer-events="none" x="0" y="15" font-size="10px" fill="#2A2C34" font-family="sans-serif"> do Sudeste</text></g><g class="node" aria-label="graph-node1" transform="translate(888.7901297253437,319.7520225928676)"><circle class="outline" cx="0" cy="0" r="40" fill="#FFC454" stroke="#d7a013" stroke-width="2px"/><text class="caption" text-anchor="middle" pointer-events="none" x="0" y="-5" font-size="10px" fill="#2A2C34" font-family="sans-serif"> Paisagem</text><text class="caption" text-anchor="middle" pointer-events="none" x="0" y="5" font-size="10px" fill="#2A2C34" font-family="sans-serif"> Cultural do Rio</text><text class="caption" text-anchor="middle" pointer-events="none" x="0" y="15" font-size="10px" fill="#2A2C34" font-family="sans-serif"> de Janeiro</text></g><g class="node" aria-label="graph-node2" transform="translate(-352.820848857575,493.8890694706654)"><circle class="outline" cx="0" cy="0" r="25" fill="#F79767" stroke="#f36924" stroke-width="2px"/><text class="caption" text-anchor="middle" pointer-events="none" x="0" y="5" font-size="10px" fill="#FFFFFF" font-family="sans-serif"> Diamanti…</text></g><g class="node" aria-label="graph-node4" transform="translate(38.23982011064237,619.1358596342009)"><circle class="outline" cx="0" cy="0" r="40" fill="#569480" stroke="#447666" stroke-width="2px"/><text class="caption" text-anchor="middle" pointer-events="none" x="0" y="5" font-size="10px" fill="#FFFFFF" font-family="sans-serif"> Pampa</text></g><g class="node" aria-label="graph-node5" transform="translate(927.8536040575382,-52.413177193715796)"><circle class="outline" cx="0" cy="0" r="40" fill="#FFC454" stroke="#d7a013" stroke-width="2px"/><text class="caption" text-anchor="middle" pointer-events="none" x="0" y="-10" font-size="10px" fill="#2A2C34" font-family="sans-serif"> Ilhas Atlânticas</text><text class="caption" text-anchor="middle" pointer-events="none" x="0" y="0" font-size="10px" fill="#2A2C34" font-family="sans-serif"> Brasileiras:</text><text class="caption" text-anchor="middle" pointer-events="none" x="0" y="10" font-size="10px" fill="#2A2C34" font-family="sans-serif"> Reservas de</text><text class="caption" text-anchor="middle" pointer-events="none" x="0" y="20" font-size="10px" fill="#2A2C34" font-family="sans-serif"> Fernando</text></g><g class="node" aria-label="graph-node6" transform="translate(-192.59719873044767,316.76203426256285)"><circle class="outline" cx="0" cy="0" r="40" fill="#569480" stroke="#447666" stroke-width="2px"/><text class="caption" text-anchor="middle" pointer-events="none" x="0" y="5" font-size="10px" fill="#FFFFFF" font-family="sans-serif"> Cerrado</text></g><g class="node" aria-label="graph-node7" transform="translate(-579.4366331490453,171.91190546788357)"><circle class="outline" cx="0" cy="0" r="40" fill="#569480" stroke="#447666" stroke-width="2px"/><text class="caption" text-anchor="middle" pointer-events="none" x="0" y="5" font-size="10px" fill="#FFFFFF" font-family="sans-serif"> Pantanal</text></g><g class="node" aria-label="graph-node9" transform="translate(-555.5456084204379,347.3906338365459)"><circle class="outline" cx="0" cy="0" r="40" fill="#FFC454" stroke="#d7a013" stroke-width="2px"/><text class="caption" text-anchor="middle" pointer-events="none" x="0" y="-15" font-size="10px" fill="#2A2C34" font-family="sans-serif"> Parques</text><text class="caption" text-anchor="middle" pointer-events="none" x="0" y="-5" font-size="10px" fill="#2A2C34" font-family="sans-serif"> Nacionais de</text><text class="caption" text-anchor="middle" pointer-events="none" x="0" y="5" font-size="10px" fill="#2A2C34" font-family="sans-serif"> Chapada dos</text><text class="caption" text-anchor="middle" pointer-events="none" x="0" y="15" font-size="10px" fill="#2A2C34" font-family="sans-serif"> Veadeiros e</text><text class="caption" text-anchor="middle" pointer-events="none" x="0" y="25" font-size="10px" fill="#2A2C34" font-family="sans-serif"> das E</text></g><g class="node" aria-label="graph-node10" transform="translate(678.4852856170461,-36.41102162202381)"><circle class="outline" cx="0" cy="0" r="25" fill="#F79767" stroke="#f36924" stroke-width="2px"/><text class="caption" text-anchor="middle" pointer-events="none" x="0" y="5" font-size="10px" fill="#FFFFFF" font-family="sans-serif"> Natal</text></g><g class="node" aria-label="graph-node11" transform="translate(-892.208190003588,373.126944254559)"><circle class="outline" cx="0" cy="0" r="40" fill="#FFC454" stroke="#d7a013" stroke-width="2px"/><text class="caption" text-anchor="middle" pointer-events="none" x="0" y="-10" font-size="10px" fill="#2A2C34" font-family="sans-serif"> Parque</text><text class="caption" text-anchor="middle" pointer-events="none" x="0" y="0" font-size="10px" fill="#2A2C34" font-family="sans-serif"> Nacional do</text><text class="caption" text-anchor="middle" pointer-events="none" x="0" y="10" font-size="10px" fill="#2A2C34" font-family="sans-serif"> Pantanal</text><text class="caption" text-anchor="middle" pointer-events="none" x="0" y="20" font-size="10px" fill="#2A2C34" font-family="sans-serif"> Matogrosse…</text></g><g class="node" aria-label="graph-node12" transform="translate(374.26846522676897,625.2534820062795)"><circle class="outline" cx="0" cy="0" r="40" fill="#FFC454" stroke="#d7a013" stroke-width="2px"/><text class="caption" text-anchor="middle" pointer-events="none" x="0" y="0" font-size="10px" fill="#2A2C34" font-family="sans-serif"> Parque Nacional</text><text class="caption" text-anchor="middle" pointer-events="none" x="0" y="10" font-size="10px" fill="#2A2C34" font-family="sans-serif"> do Iguaçu</text></g><g class="node" aria-label="graph-node13" transform="translate(-562.9845120906493,627.4846130553774)"><circle class="outline" cx="0" cy="0" r="40" fill="#FFC454" stroke="#d7a013" stroke-width="2px"/><text class="caption" text-anchor="middle" pointer-events="none" x="0" y="0" font-size="10px" fill="#2A2C34" font-family="sans-serif"> Centro Histórico</text><text class="caption" text-anchor="middle" pointer-events="none" x="0" y="10" font-size="10px" fill="#2A2C34" font-family="sans-serif"> de Diamantina</text></g><g class="node" aria-label="graph-node14" transform="translate(-417.2229004808188,-130.17561691097288)"><circle class="outline" cx="0" cy="0" r="25" fill="#F79767" stroke="#f36924" stroke-width="2px"/><text class="caption" text-anchor="middle" pointer-events="none" x="0" y="5" font-size="10px" fill="#FFFFFF" font-family="sans-serif"> São Luiz</text></g><g class="node" aria-label="graph-node15" transform="translate(-784.0661301643684,509.10484503679754)"><circle class="outline" cx="0" cy="0" r="40" fill="#FFC454" stroke="#d7a013" stroke-width="2px"/><text class="caption" text-anchor="middle" pointer-events="none" x="0" y="5" font-size="10px" fill="#2A2C34" font-family="sans-serif"> Brasilia</text></g><g class="node" aria-label="graph-node16" transform="translate(-216.61040709219867,700.6218161046595)"><circle class="outline" cx="0" cy="0" r="40" fill="#FFC454" stroke="#d7a013" stroke-width="2px"/><text class="caption" text-anchor="middle" pointer-events="none" x="0" y="-5" font-size="10px" fill="#2A2C34" font-family="sans-serif"> Conjunto</text><text class="caption" text-anchor="middle" pointer-events="none" x="0" y="5" font-size="10px" fill="#2A2C34" font-family="sans-serif"> Arquitetônico da</text><text class="caption" text-anchor="middle" pointer-events="none" x="0" y="15" font-size="10px" fill="#2A2C34" font-family="sans-serif"> Pampulha</text></g><g class="node" aria-label="graph-node17" transform="translate(-464.14739255100295,676.5529270361565)"><circle class="outline" cx="0" cy="0" r="40" fill="#FFC454" stroke="#d7a013" stroke-width="2px"/><text class="caption" text-anchor="middle" pointer-events="none" x="0" y="-5" font-size="10px" fill="#2A2C34" font-family="sans-serif"> Santuário de</text><text class="caption" text-anchor="middle" pointer-events="none" x="0" y="5" font-size="10px" fill="#2A2C34" font-family="sans-serif"> Bom Jesus de</text><text class="caption" text-anchor="middle" pointer-events="none" x="0" y="15" font-size="10px" fill="#2A2C34" font-family="sans-serif"> Matosinhos</text></g><g class="node" aria-label="graph-node18" transform="translate(-95.05172609337066,602.3383981886202)"><circle class="outline" cx="0" cy="0" r="25" fill="#F79767" stroke="#f36924" stroke-width="2px"/><text class="caption" text-anchor="middle" pointer-events="none" x="0" y="0" font-size="10px" fill="#FFFFFF" font-family="sans-serif"> Belo</text><text class="caption" text-anchor="middle" pointer-events="none" x="0" y="10" font-size="10px" fill="#FFFFFF" font-family="sans-serif"> Horizo…</text></g><g class="node" aria-label="graph-node19" transform="translate(-266.8159280543957,539.9407397435182)"><circle class="outline" cx="0" cy="0" r="25" fill="#F79767" stroke="#f36924" stroke-width="2px"/><text class="caption" text-anchor="middle" pointer-events="none" x="0" y="5" font-size="10px" fill="#FFFFFF" font-family="sans-serif"> Congon…</text></g><g class="node" aria-label="graph-node20" transform="translate(1038.63943728513,75.35434661512028)"><circle class="outline" cx="0" cy="0" r="40" fill="#FFC454" stroke="#d7a013" stroke-width="2px"/><text class="caption" text-anchor="middle" pointer-events="none" x="0" y="0" font-size="10px" fill="#2A2C34" font-family="sans-serif"> Centro Histórico</text><text class="caption" text-anchor="middle" pointer-events="none" x="0" y="10" font-size="10px" fill="#2A2C34" font-family="sans-serif"> de Olinda</text></g><g class="node" aria-label="graph-node21" transform="translate(-75.44554735821407,-127.83829897724712)"><circle class="outline" cx="0" cy="0" r="40" fill="#FFC454" stroke="#d7a013" stroke-width="2px"/><text class="caption" text-anchor="middle" pointer-events="none" x="0" y="0" font-size="10px" fill="#2A2C34" font-family="sans-serif"> Centro Histórico</text><text class="caption" text-anchor="middle" pointer-events="none" x="0" y="10" font-size="10px" fill="#2A2C34" font-family="sans-serif"> de Salvador</text></g><g class="node" aria-label="graph-node22" transform="translate(-441.35352458612516,-274.7379889244174)"><circle class="outline" cx="0" cy="0" r="40" fill="#FFC454" stroke="#d7a013" stroke-width="2px"/><text class="caption" text-anchor="middle" pointer-events="none" x="0" y="-5" font-size="10px" fill="#2A2C34" font-family="sans-serif"> Parque Nacional</text><text class="caption" text-anchor="middle" pointer-events="none" x="0" y="5" font-size="10px" fill="#2A2C34" font-family="sans-serif"> da Serra da</text><text class="caption" text-anchor="middle" pointer-events="none" x="0" y="15" font-size="10px" fill="#2A2C34" font-family="sans-serif"> Capivara</text></g><g class="node" aria-label="graph-node23" transform="translate(679.989707873589,421.1734091531382)"><circle class="outline" cx="0" cy="0" r="25" fill="#F79767" stroke="#f36924" stroke-width="2px"/><text class="caption" text-anchor="middle" pointer-events="none" x="0" y="0" font-size="10px" fill="#FFFFFF" font-family="sans-serif"> Angra dos</text><text class="caption" text-anchor="middle" pointer-events="none" x="0" y="10" font-size="10px" fill="#FFFFFF" font-family="sans-serif"> Reis</text></g><g class="node" aria-label="graph-node25" transform="translate(-42.0766465107225,826.9086205323399)"><circle class="outline" cx="0" cy="0" r="25" fill="#F79767" stroke="#f36924" stroke-width="2px"/><text class="caption" text-anchor="middle" pointer-events="none" x="0" y="-10" font-size="10px" fill="#FFFFFF" font-family="sans-serif"> São</text><text class="caption" text-anchor="middle" pointer-events="none" x="0" y="0" font-size="10px" fill="#FFFFFF" font-family="sans-serif"> Miguel</text><text class="caption" text-anchor="middle" pointer-events="none" x="0" y="10" font-size="10px" fill="#FFFFFF" font-family="sans-serif"> das</text><text class="caption" text-anchor="middle" pointer-events="none" x="0" y="20" font-size="10px" fill="#FFFFFF" font-family="sans-serif">Mi…</text></g><g class="node" aria-label="graph-node26" transform="translate(-219.13922682399493,889.6033880513091)"><circle class="outline" cx="0" cy="0" r="40" fill="#FFC454" stroke="#d7a013" stroke-width="2px"/><text class="caption" text-anchor="middle" pointer-events="none" x="0" y="-5" font-size="10px" fill="#2A2C34" font-family="sans-serif"> Ruinas de São</text><text class="caption" text-anchor="middle" pointer-events="none" x="0" y="5" font-size="10px" fill="#2A2C34" font-family="sans-serif"> Miguel das</text><text class="caption" text-anchor="middle" pointer-events="none" x="0" y="15" font-size="10px" fill="#2A2C34" font-family="sans-serif"> Missões</text></g><g class="node" aria-label="graph-node27" transform="translate(180.86374712731862,-135.37839410085172)"><circle class="outline" cx="0" cy="0" r="25" fill="#F79767" stroke="#f36924" stroke-width="2px"/><text class="caption" text-anchor="middle" pointer-events="none" x="0" y="5" font-size="10px" fill="#FFFFFF" font-family="sans-serif"> Salvador</text></g><g class="node" aria-label="graph-node28" transform="translate(775.5238668052139,192.34936100790176)"><circle class="outline" cx="0" cy="0" r="25" fill="#F79767" stroke="#f36924" stroke-width="2px"/><text class="caption" text-anchor="middle" pointer-events="none" x="0" y="5" font-size="10px" fill="#FFFFFF" font-family="sans-serif"> Olinda</text></g><g class="node" aria-label="graph-node29" transform="translate(396.0265861695236,421.3578446355509)"><circle class="outline" cx="0" cy="0" r="40" fill="#FFC454" stroke="#d7a013" stroke-width="2px"/><text class="caption" text-anchor="middle" pointer-events="none" x="0" y="-10" font-size="10px" fill="#2A2C34" font-family="sans-serif"> Paraty e Ilha</text><text class="caption" text-anchor="middle" pointer-events="none" x="0" y="0" font-size="10px" fill="#2A2C34" font-family="sans-serif"> Grande –</text><text class="caption" text-anchor="middle" pointer-events="none" x="0" y="10" font-size="10px" fill="#2A2C34" font-family="sans-serif"> Cultura e</text><text class="caption" text-anchor="middle" pointer-events="none" x="0" y="20" font-size="10px" fill="#2A2C34" font-family="sans-serif"> Biodiversid…</text></g><g class="node" aria-label="graph-node30" transform="translate(-544.150047205896,435.7423053457454)"><circle class="outline" cx="0" cy="0" r="25" fill="#F79767" stroke="#f36924" stroke-width="2px"/><text class="caption" text-anchor="middle" pointer-events="none" x="0" y="5" font-size="10px" fill="#FFFFFF" font-family="sans-serif"> Brasilia</text></g><g class="node" aria-label="graph-node31" transform="translate(681.2593601974593,300.79811788644105)"><circle class="outline" cx="0" cy="0" r="25" fill="#F79767" stroke="#f36924" stroke-width="2px"/><text class="caption" text-anchor="middle" pointer-events="none" x="0" y="0" font-size="10px" fill="#FFFFFF" font-family="sans-serif"> Rio de</text><text class="caption" text-anchor="middle" pointer-events="none" x="0" y="10" font-size="10px" fill="#FFFFFF" font-family="sans-serif"> Janeiro</text></g><g class="node" aria-label="graph-node32" transform="translate(-362.86987527700904,718.4215715758492)"><circle class="outline" cx="0" cy="0" r="40" fill="#FFC454" stroke="#d7a013" stroke-width="2px"/><text class="caption" text-anchor="middle" pointer-events="none" x="0" y="0" font-size="10px" fill="#2A2C34" font-family="sans-serif"> Cidade Histórica</text><text class="caption" text-anchor="middle" pointer-events="none" x="0" y="10" font-size="10px" fill="#2A2C34" font-family="sans-serif"> de Ouro Preto</text></g><g class="node" aria-label="graph-node33" transform="translate(365.1410212703535,761.8331873980895)"><circle class="outline" cx="0" cy="0" r="25" fill="#F79767" stroke="#f36924" stroke-width="2px"/><text class="caption" text-anchor="middle" pointer-events="none" x="0" y="0" font-size="10px" fill="#FFFFFF" font-family="sans-serif"> Foz do</text><text class="caption" text-anchor="middle" pointer-events="none" x="0" y="10" font-size="10px" fill="#FFFFFF" font-family="sans-serif"> Iguaçu</text></g><g class="node" aria-label="graph-node34" transform="translate(-55.99057753814493,442.71392361463205)"><circle class="outline" cx="0" cy="0" r="25" fill="#C990C0" stroke="#b261a5" stroke-width="2px"/><text class="caption" text-anchor="middle" pointer-events="none" x="0" y="0" font-size="10px" fill="#FFFFFF" font-family="sans-serif"> Minas</text><text class="caption" text-anchor="middle" pointer-events="none" x="0" y="10" font-size="10px" fill="#FFFFFF" font-family="sans-serif"> Gerais</text></g><g class="node" aria-label="graph-node35" transform="translate(-513.0263726471255,506.0773140832962)"><circle class="outline" cx="0" cy="0" r="25" fill="#F79767" stroke="#f36924" stroke-width="2px"/><text class="caption" text-anchor="middle" pointer-events="none" x="0" y="0" font-size="10px" fill="#FFFFFF" font-family="sans-serif"> Cidade de</text><text class="caption" text-anchor="middle" pointer-events="none" x="0" y="10" font-size="10px" fill="#FFFFFF" font-family="sans-serif"> Goiás</text></g><g class="node" aria-label="graph-node36" transform="translate(161.44345830621802,447.6454554325044)"><circle class="outline" cx="0" cy="0" r="40" fill="#569480" stroke="#447666" stroke-width="2px"/><text class="caption" text-anchor="middle" pointer-events="none" x="0" y="5" font-size="10px" fill="#FFFFFF" font-family="sans-serif"> Mata Atlântica</text></g><g class="node" aria-label="graph-node37" transform="translate(-547.6516281987788,-83.92547307887253)"><circle class="outline" cx="0" cy="0" r="40" fill="#569480" stroke="#447666" stroke-width="2px"/><text class="caption" text-anchor="middle" pointer-events="none" x="0" y="5" font-size="10px" fill="#FFFFFF" font-family="sans-serif"> Amazônia</text></g><g class="node" aria-label="graph-node38" transform="translate(-265.8642257284745,-126.36615697418677)"><circle class="outline" cx="0" cy="0" r="25" fill="#F79767" stroke="#f36924" stroke-width="2px"/><text class="caption" text-anchor="middle" pointer-events="none" x="0" y="-5" font-size="10px" fill="#FFFFFF" font-family="sans-serif"> São</text><text class="caption" text-anchor="middle" pointer-events="none" x="0" y="5" font-size="10px" fill="#FFFFFF" font-family="sans-serif"> Raimundo</text><text class="caption" text-anchor="middle" pointer-events="none" x="0" y="15" font-size="10px" fill="#FFFFFF" font-family="sans-serif"> Non…</text></g><g class="node" aria-label="graph-node39" transform="translate(736.5671732285907,374.353307583786)"><circle class="outline" cx="0" cy="0" r="25" fill="#F79767" stroke="#f36924" stroke-width="2px"/><text class="caption" text-anchor="middle" pointer-events="none" x="0" y="5" font-size="10px" fill="#FFFFFF" font-family="sans-serif"> Parati</text></g><g class="node" aria-label="graph-node40" transform="translate(677.4299803706419,110.74499829785947)"><circle class="outline" cx="0" cy="0" r="25" fill="#F79767" stroke="#f36924" stroke-width="2px"/><text class="caption" text-anchor="middle" pointer-events="none" x="0" y="-5" font-size="10px" fill="#FFFFFF" font-family="sans-serif"> Fernando</text><text class="caption" text-anchor="middle" pointer-events="none" x="0" y="5" font-size="10px" fill="#FFFFFF" font-family="sans-serif"> de</text><text class="caption" text-anchor="middle" pointer-events="none" x="0" y="15" font-size="10px" fill="#FFFFFF" font-family="sans-serif"> Nor…</text></g><g class="node" aria-label="graph-node42" transform="translate(-620.2200898527244,-210.2504134863624)"><circle class="outline" cx="0" cy="0" r="40" fill="#FFC454" stroke="#d7a013" stroke-width="2px"/><text class="caption" text-anchor="middle" pointer-events="none" x="0" y="0" font-size="10px" fill="#2A2C34" font-family="sans-serif"> Centro Histórico</text><text class="caption" text-anchor="middle" pointer-events="none" x="0" y="10" font-size="10px" fill="#2A2C34" font-family="sans-serif"> de São Luís</text></g><g class="node" aria-label="graph-node43" transform="translate(176.96641119364722,147.35248701888)"><circle class="outline" cx="0" cy="0" r="40" fill="#569480" stroke="#447666" stroke-width="2px"/><text class="caption" text-anchor="middle" pointer-events="none" x="0" y="5" font-size="10px" fill="#FFFFFF" font-family="sans-serif"> Caatinga</text></g><g class="node" aria-label="graph-node44" transform="translate(-732.440610783314,619.4463843080093)"><circle class="outline" cx="0" cy="0" r="40" fill="#FFC454" stroke="#d7a013" stroke-width="2px"/><text class="caption" text-anchor="middle" pointer-events="none" x="0" y="0" font-size="10px" fill="#2A2C34" font-family="sans-serif"> Centro Histórico</text><text class="caption" text-anchor="middle" pointer-events="none" x="0" y="10" font-size="10px" fill="#2A2C34" font-family="sans-serif"> de Goiás</text></g><g class="node" aria-label="graph-node45" transform="translate(232.42172713473286,642.205359714664)"><circle class="outline" cx="0" cy="0" r="25" fill="#C990C0" stroke="#b261a5" stroke-width="2px"/><text class="caption" text-anchor="middle" pointer-events="none" x="0" y="5" font-size="10px" fill="#FFFFFF" font-family="sans-serif"> Paraná</text></g><g class="node" aria-label="graph-node46" transform="translate(954.5718962338414,428.4188941243855)"><circle class="outline" cx="0" cy="0" r="40" fill="#FFC454" stroke="#d7a013" stroke-width="2px"/><text class="caption" text-anchor="middle" pointer-events="none" x="0" y="0" font-size="10px" fill="#2A2C34" font-family="sans-serif"> Cais do Valongo</text><text class="caption" text-anchor="middle" pointer-events="none" x="0" y="10" font-size="10px" fill="#2A2C34" font-family="sans-serif"> e da Imperatriz</text></g><g class="node" aria-label="graph-node47" transform="translate(941.0465188064197,194.93736412295084)"><circle class="outline" cx="0" cy="0" r="40" fill="#FFC454" stroke="#d7a013" stroke-width="2px"/><text class="caption" text-anchor="middle" pointer-events="none" x="0" y="0" font-size="10px" fill="#2A2C34" font-family="sans-serif"> Sítio Roberto</text><text class="caption" text-anchor="middle" pointer-events="none" x="0" y="10" font-size="10px" fill="#2A2C34" font-family="sans-serif"> Burle Marx</text></g><g class="node" aria-label="graph-node48" transform="translate(-324.5166149394506,399.8780342031407)"><circle class="outline" cx="0" cy="0" r="25" fill="#C990C0" stroke="#b261a5" stroke-width="2px"/><text class="caption" text-anchor="middle" pointer-events="none" x="0" y="5" font-size="10px" fill="#FFFFFF" font-family="sans-serif"> Goiás</text></g><g class="node" aria-label="graph-node49" transform="translate(496.9720773057386,228.309949857849)"><circle class="outline" cx="0" cy="0" r="25" fill="#C990C0" stroke="#b261a5" stroke-width="2px"/><text class="caption" text-anchor="middle" pointer-events="none" x="0" y="5" font-size="10px" fill="#FFFFFF" font-family="sans-serif"> Pernam…</text></g><g class="node" aria-label="graph-node50" transform="translate(-255.1150829402244,29.519307309879196)"><circle class="outline" cx="0" cy="0" r="25" fill="#C990C0" stroke="#b261a5" stroke-width="2px"/><text class="caption" text-anchor="middle" pointer-events="none" x="0" y="5" font-size="10px" fill="#FFFFFF" font-family="sans-serif"> Maranhão</text></g><g class="node" aria-label="graph-node57" transform="translate(-170.16975879414306,575.0291792544448)"><circle class="outline" cx="0" cy="0" r="25" fill="#F79767" stroke="#f36924" stroke-width="2px"/><text class="caption" text-anchor="middle" pointer-events="none" x="0" y="0" font-size="10px" fill="#FFFFFF" font-family="sans-serif"> Ouro</text><text class="caption" text-anchor="middle" pointer-events="none" x="0" y="10" font-size="10px" fill="#FFFFFF" font-family="sans-serif"> Preto</text></g><g class="node" aria-label="graph-node58" transform="translate(525.073727195343,3.388052788563435)"><circle class="outline" cx="0" cy="0" r="25" fill="#C990C0" stroke="#b261a5" stroke-width="2px"/><text class="caption" text-anchor="middle" pointer-events="none" x="0" y="-10" font-size="10px" fill="#FFFFFF" font-family="sans-serif"> Rio</text><text class="caption" text-anchor="middle" pointer-events="none" x="0" y="0" font-size="10px" fill="#FFFFFF" font-family="sans-serif"> Grande</text><text class="caption" text-anchor="middle" pointer-events="none" x="0" y="10" font-size="10px" fill="#FFFFFF" font-family="sans-serif"> do</text><text class="caption" text-anchor="middle" pointer-events="none" x="0" y="20" font-size="10px" fill="#FFFFFF" font-family="sans-serif">No…</text></g><g class="node" aria-label="graph-node59" transform="translate(-771.0147176916066,-213.16720128911925)"><circle class="outline" cx="0" cy="0" r="40" fill="#FFC454" stroke="#d7a013" stroke-width="2px"/><text class="caption" text-anchor="middle" pointer-events="none" x="0" y="-10" font-size="10px" fill="#2A2C34" font-family="sans-serif"> Complexo de</text><text class="caption" text-anchor="middle" pointer-events="none" x="0" y="0" font-size="10px" fill="#2A2C34" font-family="sans-serif"> Conservação da</text><text class="caption" text-anchor="middle" pointer-events="none" x="0" y="10" font-size="10px" fill="#2A2C34" font-family="sans-serif"> Amazônia</text><text class="caption" text-anchor="middle" pointer-events="none" x="0" y="20" font-size="10px" fill="#2A2C34" font-family="sans-serif"> Central</text></g><g class="node" aria-label="graph-node60" transform="translate(419.61615844991866,-14.727795702147944)"><circle class="outline" cx="0" cy="0" r="25" fill="#F79767" stroke="#f36924" stroke-width="2px"/><text class="caption" text-anchor="middle" pointer-events="none" x="0" y="0" font-size="10px" fill="#FFFFFF" font-family="sans-serif"> São</text><text class="caption" text-anchor="middle" pointer-events="none" x="0" y="10" font-size="10px" fill="#FFFFFF" font-family="sans-serif"> Cristo…</text></g><g class="node" aria-label="graph-node61" transform="translate(545.4596737970833,612.0991434362627)"><circle class="outline" cx="0" cy="0" r="40" fill="#FFC454" stroke="#d7a013" stroke-width="2px"/><text class="caption" text-anchor="middle" pointer-events="none" x="0" y="-10" font-size="10px" fill="#2A2C34" font-family="sans-serif"> Reservas de</text><text class="caption" text-anchor="middle" pointer-events="none" x="0" y="0" font-size="10px" fill="#2A2C34" font-family="sans-serif"> Mata Atlântica</text><text class="caption" text-anchor="middle" pointer-events="none" x="0" y="10" font-size="10px" fill="#2A2C34" font-family="sans-serif"> do</text><text class="caption" text-anchor="middle" pointer-events="none" x="0" y="20" font-size="10px" fill="#2A2C34" font-family="sans-serif"> Descobrim…</text></g><g class="node" aria-label="graph-node62" transform="translate(158.94829313742923,-241.9766371310439)"><circle class="outline" cx="0" cy="0" r="40" fill="#FFC454" stroke="#d7a013" stroke-width="2px"/><text class="caption" text-anchor="middle" pointer-events="none" x="0" y="0" font-size="10px" fill="#2A2C34" font-family="sans-serif"> Praça de São</text><text class="caption" text-anchor="middle" pointer-events="none" x="0" y="10" font-size="10px" fill="#2A2C34" font-family="sans-serif"> Francisco</text></g><g class="node" aria-label="graph-node104" transform="translate(504.2499855451316,146.93648320478226)"><circle class="outline" cx="0" cy="0" r="25" fill="#C990C0" stroke="#b261a5" stroke-width="2px"/><text class="caption" text-anchor="middle" pointer-events="none" x="0" y="5" font-size="10px" fill="#FFFFFF" font-family="sans-serif"> Sergipe</text></g><g class="node" aria-label="graph-node105" transform="translate(13.521903532670152,304.42015765866034)"><circle class="outline" cx="0" cy="0" r="25" fill="#C990C0" stroke="#b261a5" stroke-width="2px"/><text class="caption" text-anchor="middle" pointer-events="none" x="0" y="5" font-size="10px" fill="#FFFFFF" font-family="sans-serif"> Bahia</text></g><g class="node" aria-label="graph-node106" transform="translate(133.6973955184208,750.2084770363907)"><circle class="outline" cx="0" cy="0" r="25" fill="#C990C0" stroke="#b261a5" stroke-width="2px"/><text class="caption" text-anchor="middle" pointer-events="none" x="0" y="-5" font-size="10px" fill="#FFFFFF" font-family="sans-serif"> Rio</text><text class="caption" text-anchor="middle" pointer-events="none" x="0" y="5" font-size="10px" fill="#FFFFFF" font-family="sans-serif"> Grande</text><text class="caption" text-anchor="middle" pointer-events="none" x="0" y="15" font-size="10px" fill="#FFFFFF" font-family="sans-serif">Su…</text></g><g class="node" aria-label="graph-node107" transform="translate(-80.28680825705186,90.20527609999111)"><circle class="outline" cx="0" cy="0" r="25" fill="#C990C0" stroke="#b261a5" stroke-width="2px"/><text class="caption" text-anchor="middle" pointer-events="none" x="0" y="5" font-size="10px" fill="#FFFFFF" font-family="sans-serif"> Piauí</text></g><g class="node" aria-label="graph-node108" transform="translate(444.6828423516871,338.0176469521613)"><circle class="outline" cx="0" cy="0" r="25" fill="#C990C0" stroke="#b261a5" stroke-width="2px"/><text class="caption" text-anchor="middle" pointer-events="none" x="0" y="0" font-size="10px" fill="#FFFFFF" font-family="sans-serif"> Rio de</text><text class="caption" text-anchor="middle" pointer-events="none" x="0" y="10" font-size="10px" fill="#FFFFFF" font-family="sans-serif"> Janeiro</text></g></g></svg>